<svg xmlns="http://www.w3.org/2000/svg" viewBox="0 0 512 512">
  <rect width="512" height="512" rx="15%" fill="#007aff"/>
  <path fill="#fff" d="M196 220h-16v-8h-24v80h24v-8h16v16c0 4.4-3.6 8-8 8h-48c-4.4 0-8-3.6-8-8v-96c0-4.4 3.6-8 8-8h48c4.4 0 8 3.6 8 8v16zm-16 24h-24v16h24v-16zm0-32h-24v16h24v-16zm176 32h-24v16h24v-16zm0-32h-24v16h24v-16zm0-40h-48c-4.4 0-8 3.6-8 8v96c0 4.4 3.6 8 8 8h48c4.4 0 8-3.6 8-8v-16h-16v8h-24v-80h24v8h16v-16c0-4.4-3.6-8-8-8zm-80 112h-64v-16h64v-24h-48c-8.8 0-16-7.2-16-16v-40c0-8.8 7.2-16 16-16h64v16h-64v24h48c8.8 0 16 7.2 16 16v40c0 8.8-7.2 16-16 16z"/>
</svg> 